<?xml version="1.0" encoding="UTF-8"?>
<svg width="730px" height="145px" viewBox="0 0 730 145" version="1.1" xmlns="http://www.w3.org/2000/svg" xmlns:xlink="http://www.w3.org/1999/xlink">
    <!-- Generator: Sketch 43.1 (39012) - http://www.bohemiancoding.com/sketch -->
    <title>Shape</title>
    <desc>Created with Sketch.</desc>
    <defs></defs>
    <g id="Page-1" stroke="none" stroke-width="1" fill="none" fill-rule="evenodd">
        <g id="1-01" transform="translate(-688.000000, -1094.000000)" fill-rule="nonzero" fill="#000000">
            <g id="Object">
                <g id="Group" transform="translate(680.000000, 554.000000)">
                    <path d="M580.333111,633.979164 L570.935195,633.979164 L570.935195,631.942949 L559.344431,631.942949 L559.344431,636.250328 L566.706133,636.250328 L566.706133,639.148018 L542.976394,639.148018 L542.976394,634.05748 L533.578477,634.05748 L533.578477,632.021265 L521.909397,632.021265 L521.909397,636.328644 L529.271099,636.328644 L529.271099,639.226334 L505.463044,639.226334 L505.463044,634.135796 L496.065127,634.135796 L496.065127,632.099581 L484.474364,632.099581 L484.474364,636.40696 L491.836065,636.40696 L491.836065,639.30465 L476.016239,639.30465 L476.016239,631.942949 L469.516013,631.942949 L469.516013,639.30465 L446.25617,639.30465 L446.25617,635.388852 L438.424573,635.388852 L438.424573,633.352637 L428.791709,633.352637 L428.791709,637.660015 L434.900354,637.660015 L434.900354,639.382966 L426.520546,639.382966 L426.520546,635.467168 L418.688949,635.467168 L418.688949,633.430953 L409.1344,633.430953 L409.1344,637.738331 L415.243046,637.738331 L415.243046,639.461282 L407.176501,639.461282 L407.176501,635.545484 L399.344904,635.545484 L399.344904,633.509269 L389.71204,633.509269 L389.71204,637.816647 L395.820685,637.816647 L395.820685,639.539598 L379.139384,639.539598 L379.139384,632.177897 L372.639158,632.177897 L372.639158,639.539598 L356.427752,639.539598 L356.427752,632.177897 L349.927527,632.177897 L349.927527,639.539598 L340.372978,639.539598 L340.372978,635.467168 L336.770444,635.467168 L336.770444,628.497047 L334.734228,626.930727 L334.734228,619.255762 L330.661798,619.255762 L330.661798,625.051144 L325.727892,625.051144 L325.727892,623.014929 L327.450843,621.291977 L327.450843,607.978262 L331.758221,607.978262 L331.758221,604.062464 L328.547267,601.869617 L321.342197,601.712985 L316.408291,605.628783 L314.68534,602.731092 L306.618795,602.731092 L304.58258,605.315519 L301.684889,603.984148 L301.684889,597.797186 L299.178778,596.074235 L299.178778,574.693975 L305.444055,574.693975 L305.444055,571.639652 L299.178778,571.639652 L299.178778,563.338159 L307.793535,563.338159 L307.793535,560.5971 L305.365739,560.5971 L305.365739,550.337708 L302.781312,550.337708 L302.781312,560.5971 L299.100462,560.5971 L299.100462,548.066545 L298.473934,540 L296.907615,548.066545 L296.281087,560.5971 L293.226764,560.5971 L293.226764,556.13309 L290.172441,556.13309 L290.172441,560.5971 L287.979594,560.5971 L287.979594,563.338159 L296.359403,563.338159 L296.359403,571.561336 L290.877285,571.561336 L290.877285,574.615659 L296.202771,574.615659 L296.202771,579.706197 L291.582129,579.706197 L291.582129,577.043454 L289.154334,577.043454 L289.154334,585.266631 L291.582129,585.266631 L291.582129,582.447256 L296.202771,582.447256 L296.202771,597.562238 L296.046139,602.026249 L295.184663,605.942047 L292.991816,603.514252 L292.991816,593.098228 L291.112233,603.044356 L290.407389,606.646891 L287.66633,605.080571 L287.66633,601.164773 L287.66633,596.544131 L277.093674,596.544131 L273.647771,599.441822 L271.219976,596.544131 L266.28607,596.544131 L264.954699,598.971926 L263.623327,596.544131 L257.827945,596.544131 L257.827945,601.164773 L254.382043,605.942047 L253.520567,613.147116 L245.454022,613.147116 L245.454022,616.749651 L249.369821,616.749651 L249.369821,621.526925 L243.574439,621.526925 L243.574439,624.581248 L250.074664,624.581248 L250.074664,634.05748 L243.574439,634.05748 L243.574439,639.069703 L236.36937,639.069703 L236.36937,608.839738 L233.784943,606.646891 L233.784943,595.839287 L231.357147,595.839287 L231.357147,589.652325 L238.875481,589.652325 L238.875481,585.266631 L223.995446,585.266631 L223.995446,589.730641 L228.929352,589.730641 L228.929352,596.387499 L225.326818,596.387499 L225.326818,599.441822 L228.067877,602.18288 L228.067877,607.508366 L223.290603,607.508366 L223.290603,605.080571 L218.826592,605.080571 L218.826592,607.508366 L215.928901,607.508366 L215.928901,611.815745 L218.826592,611.815745 L218.826592,614.400172 L223.290603,614.400172 L223.290603,611.815745 L228.146193,611.815745 L228.146193,625.990935 L222.507443,625.990935 L222.507443,629.20189 L216.007217,631.942949 L216.007217,639.148018 L194.548641,639.148018 L194.548641,636.172012 L201.910343,636.172012 L201.910343,631.864633 L190.319579,631.864633 L190.319579,633.900848 L180.921663,633.900848 L180.921663,638.991387 L171.210482,638.991387 L171.210482,636.172012 L178.572183,636.172012 L178.572183,631.864633 L166.98142,631.864633 L166.98142,633.900848 L157.583503,633.900848 L157.583503,638.991387 L147.872323,638.991387 L147.872323,636.172012 L155.234024,636.172012 L155.234024,631.864633 L143.643261,631.864633 L143.643261,633.900848 L134.245344,633.900848 L134.245344,638.991387 L105.816647,638.991387 L105.816647,630.924842 L95.8705187,630.924842 L95.8705187,638.991387 L88.6654495,638.991387 L88.6654495,633.900848 L88.6654495,624.659564 L84.9062829,624.659564 L84.9062829,633.900848 L81.3037483,633.900848 L81.3037483,638.991387 L8,638.991387 L10.584427,644.630136 L17.7894963,644.630136 L17.7894963,661.546386 L12.8555902,661.546386 L12.8555902,666.167028 L19.7473956,666.167028 L26.9524648,684.101385 L706.970035,684.101385 C706.970035,684.101385 704.385608,665.618816 710.024358,656.925744 C715.663108,648.232671 729.525035,644.081925 737.2,644.081925 L737.2,638.991387 L580.333111,638.991387 L580.333111,633.979164 Z" id="Shape"></path>
                </g>
            </g>
        </g>
    </g>
</svg>