<?xml version="1.0" encoding="UTF-8"?>
<svg width="551px" height="100px" viewBox="0 0 551 100" version="1.1" xmlns="http://www.w3.org/2000/svg" xmlns:xlink="http://www.w3.org/1999/xlink">
    <!-- Generator: Sketch 43.1 (39012) - http://www.bohemiancoding.com/sketch -->
    <title>Shape</title>
    <desc>Created with Sketch.</desc>
    <defs></defs>
    <g id="Page-1" stroke="none" stroke-width="1" fill="none" fill-rule="evenodd">
        <g id="1-01" transform="translate(-45.000000, -1129.000000)" fill-rule="nonzero" fill="#000000">
            <g id="Object">
                <g id="Group" transform="translate(45.000000, 303.000000)">
                    <path d="M546.731164,896.249907 L546.731164,889.772952 L533.777255,889.772952 L533.777255,896.021308 L500.630487,896.021308 L500.630487,888.325162 L481.428222,888.325162 L481.428222,892.058936 L462.454555,892.058936 L462.454555,896.021308 L450.948436,896.021308 L450.948436,891.068343 L444.242883,891.068343 L444.242883,870.646886 L439.975713,870.646886 L439.975713,891.068343 L434.260753,891.068343 L434.260753,896.021308 L413.3059,896.021308 L413.3059,883.829394 L410.562719,883.829394 L410.562719,896.021308 L397.837408,896.021308 L397.837408,889.544354 L387.550481,889.544354 L387.550481,896.021308 L380.54013,896.021308 L380.54013,891.068343 L378.330345,888.858559 L378.330345,882.305405 L369.567407,882.305405 L369.567407,888.858559 L364.84304,888.858559 L364.84304,883.829394 L358.594684,883.829394 L358.594684,880.019421 L362.557056,877.27624 L362.557056,864.779528 L344.573982,864.779528 L344.573982,856.549985 L340.306812,856.549985 L340.306812,864.779528 L333.067863,864.779528 L333.067863,826.832194 L330.096084,826.832194 L330.096084,883.219798 L324.609722,877.733437 L307.922039,877.733437 L307.922039,873.771065 L314.398994,873.771065 L314.398994,864.779528 L310.436622,864.779528 L310.436622,870.494488 L305.940853,870.494488 L305.940853,856.016589 L315.160989,856.016589 L315.160989,842.529284 L297.177915,842.529284 L297.177915,853.730605 L299.921096,855.483193 L287.957779,855.483193 L287.957779,849.463435 L284.224006,849.463435 L284.224006,855.483193 L268.526916,855.483193 L268.526916,850.987424 L261.287967,850.987424 L261.287967,855.711791 L256.335001,855.711791 L256.335001,832.775752 L253.591821,832.775752 L253.591821,855.711791 L248.105459,855.711791 L248.105459,851.978017 L241.628505,851.978017 L241.628505,857.692977 L247.114866,860.969554 L247.114866,873.923463 L242.847696,873.923463 L241.628505,869.580094 L244.066887,867.141711 L237.589933,867.141711 L235.380148,873.694865 L239.342521,877.962035 L239.342521,889.468154 L235.380148,889.468154 L235.380148,883.219798 L229.131792,883.219798 L229.131792,889.468154 L222.197641,889.468154 L218.921064,892.439934 L218.921064,888.172763 L208.710336,888.172763 L204.900362,895.868909 L200.252195,895.868909 L200.252195,890.915944 L195.451629,890.915944 L195.451629,895.868909 L185.621898,895.868909 L185.621898,890.915944 L179.297342,890.915944 L179.297342,895.868909 L171.448797,895.868909 L171.448797,890.915944 L140.511814,890.915944 L140.511814,895.868909 L133.730062,895.868909 L133.730062,888.401362 L131.901274,888.401362 L131.901274,895.868909 L116.127985,895.868909 L116.127985,887.18217 L114.832594,887.18217 L114.832594,896.021308 L97.0019194,896.021308 L97.0019194,893.506726 L99.5165017,893.506726 L99.5165017,888.553761 L83.2098161,888.553761 L83.2098161,893.506726 L87.1721883,893.506726 L87.1721883,896.021308 L72.9990878,896.021308 L72.9990878,892.97333 L68.3509204,892.97333 L68.3509204,896.021308 L56.5400033,896.021308 L56.5400033,892.97333 L31.927576,892.97333 L31.927576,896.021308 L25.2982225,896.021308 L25.2982225,892.97333 L4.19097059,892.97333 L4.19097059,896.021308 L0,896.021308 L0,900.669476 L9.29633477,900.669476 L15.9256883,912.632792 L15.9256883,925.967698 L530.881675,925.967698 L534.844047,909.965811 C534.844047,909.965811 547.188361,905.317643 550.16014,900.669476 C552.141326,897.697697 550.464938,896.630904 546.731164,896.249907 Z" id="Shape"></path>
                </g>
            </g>
        </g>
    </g>
</svg>