<?xml version="1.0" encoding="UTF-8"?>
<svg width="330px" height="97px" viewBox="0 0 330 97" version="1.1" xmlns="http://www.w3.org/2000/svg" xmlns:xlink="http://www.w3.org/1999/xlink">
    <!-- Generator: Sketch 43.1 (39012) - http://www.bohemiancoding.com/sketch -->
    <title>Shape</title>
    <desc>Created with Sketch.</desc>
    <defs></defs>
    <g id="Page-1" stroke="none" stroke-width="1" fill="none" fill-rule="evenodd">
        <g id="1-01" transform="translate(-41.000000, -993.000000)" fill-rule="nonzero" fill="#000000">
            <g id="Object">
                <g id="Group" transform="translate(41.000000, 429.000000)">
                    <path d="M234.870466,629.167303 L234.870466,627.716526 L217.668394,627.716526 L217.668394,630.3072 L215.388601,630.46264 L215.388601,628.390101 L213.264249,628.390101 L213.264249,630.566267 L210.207254,630.773521 L210.207254,627.664713 L205.388601,627.664713 L205.388601,631.084402 L201.813472,631.343469 L201.813472,622.742433 L205.906736,618.649169 L201.398964,616.369376 L197.305699,613.208754 L192.331606,616.162122 L192.331606,619.11549 L186.010363,619.11549 L186.010363,614.814972 L188.497409,613.208754 L188.497409,608.234661 L185.544041,608.234661 L185.544041,606.317562 L181.243523,606.317562 L181.243523,604.03777 L176.165803,604.03777 L176.165803,598.131034 L168.497409,598.131034 L168.497409,604.555904 L167.150259,604.555904 L167.150259,608.182847 L165.07772,603.0015 L165.07772,586.783884 L163.834197,586.783884 L163.834197,582.017044 L174.559585,582.017044 L174.559585,579.892692 L163.834197,579.892692 L163.834197,564.814972 C163.834197,564.814972 162.124352,564.763158 162.124352,564.814972 L162.124352,579.892692 L152.849741,579.892692 L152.849741,582.017044 L162.124352,582.017044 L162.124352,586.628443 L159.84456,586.628443 L159.84456,603.882329 L156.321244,608.286474 L155.647668,604.089583 L150.880829,604.089583 L150.880829,602.379739 L146.943005,602.379739 L144.248705,606.213936 L142.53886,606.213936 L142.53886,590.151759 L144.352332,590.151759 L144.352332,590.721708 L146.165803,590.721708 L146.165803,590.151759 L146.165803,588.856423 L146.165803,570.514454 L144.352332,570.514454 L144.352332,588.856423 L142.53886,588.856423 L142.53886,587.975594 L140.725389,587.975594 L140.725389,588.856423 L137.875648,588.856423 L137.875648,590.203573 L140.725389,590.203573 L140.725389,606.265749 L139.015544,606.265749 L139.015544,604.141397 L136.165803,604.141397 L136.165803,598.234661 L133.88601,598.234661 L133.88601,605.38492 L131.398964,605.38492 L131.398964,602.431552 L126.632124,602.431552 L125.595855,603.675075 L118.341969,605.488547 L116.062176,605.488547 L116.062176,586.058495 L114.611399,586.058495 L114.611399,605.488547 L113.937824,608.338288 L113.937824,610.825335 L110.103627,612.431552 L110.103627,610.099946 L107.253886,610.099946 L107.253886,619.374557 L110.207254,622.327925 L108.186528,624.348651 L106.26943,622.949687 L106.26943,601.602537 L107.512953,601.602537 L107.512953,598.234661 L100.932642,598.234661 L100.932642,601.602537 L104.196891,601.602537 L104.196891,622.535179 L102.953368,622.535179 L102.953368,619.374557 L97.7720207,619.374557 L97.7720207,622.068858 L92.3316062,622.068858 L94.611399,626.369376 L94.611399,634.296837 L91.5544041,634.296837 L91.5544041,631.706164 L86.6839378,631.706164 L86.6839378,634.296837 L83.3160622,634.296837 L83.3160622,631.706164 L77.9792746,631.706164 L77.9792746,634.245024 L71.3989637,634.245024 L71.3989637,631.706164 L68.5492228,631.706164 L68.5492228,634.245024 L56.3212435,634.19321 L56.3212435,631.706164 L49.2227979,631.706164 L49.2227979,634.19321 L6.11398964,634.089583 L6.11398964,641.084402 L3.16062176,641.084402 L3.16062176,634.089583 L0,634.089583 L0,648.131034 L9.48186528,660.359013 L303.108808,660.359013 L330,622.794246 L234.870466,629.167303 Z" id="Shape"></path>
                </g>
            </g>
        </g>
    </g>
</svg>